<?xml version="1.0" encoding="UTF-8"?>
<svg width="1074px" height="178px" viewBox="0 0 1074 178" version="1.1" xmlns="http://www.w3.org/2000/svg" xmlns:xlink="http://www.w3.org/1999/xlink">
    <!-- Generator: Sketch 55.1 (78136) - https://sketchapp.com -->
    <title>logo</title>
    <desc>Created with Sketch.</desc>
    <g id="Page-1" stroke="none" stroke-width="1" fill="none" fill-rule="evenodd">
        <path d="M51.625,109.75 C51.7916675,110.25 51.8958331,110.83333 51.9375,111.5 C51.9791669,112.16667 52,112.791664 52,113.375 C52,114.875008 51.833335,116.29166 51.5,117.625 C51.166665,118.95834 50.6250038,120.124995 49.875,121.125 C49.1249962,122.125005 48.1458394,122.937497 46.9375,123.5625 C45.7291606,124.187503 44.2083425,124.5 42.375,124.5 C40.6249912,124.5 38.8958419,124.125004 37.1875,123.375 C35.4791581,122.624996 33.3750125,121.541674 30.875,120.125 L4,104.625 C1.8333225,101.791653 0.75,98.04169 0.75,93.375 C0.75,89.8749825 1.25,87.1666763 2.25,85.25 C3.25,83.3333237 4.70832375,81.8333387 6.625,80.75 L41,60.75 C45.0833538,61.8333387 47.8541594,63.3124906 49.3125,65.1875 C50.7708406,67.0625094 51.5,69.0833225 51.5,71.25 C51.5,74.1666813 50.7708406,76.4374919 49.3125,78.0625 C47.8541594,79.6875081 45.7083475,81.2083263 42.875,82.625 L20.875,93.75 L51.625,109.75 Z" id="&lt;" fill="#FFFFFF" fill-rule="nonzero"></path>
        <path d="M300.25,76.5 C300.083332,75.9999975 299.979167,75.41667 299.9375,74.75 C299.895833,74.08333 299.875,73.4583363 299.875,72.875 C299.875,71.3749925 300.041665,69.95834 300.375,68.625 C300.708335,67.29166 301.249996,66.125005 302,65.125 C302.750004,64.124995 303.729161,63.3125031 304.9375,62.6875 C306.145839,62.0624969 307.666657,61.75 309.5,61.75 C311.250009,61.75 312.979158,62.1249962 314.6875,62.875 C316.395842,63.6250038 318.499987,64.7083263 321,66.125 L347.875,81.625 C350.041677,84.4583475 351.125,88.20831 351.125,92.875 C351.125,96.3750175 350.625005,99.0833237 349.625,101 C348.624995,102.916676 347.166676,104.416661 345.25,105.5 L310.875,125.5 C306.791646,124.416661 304.020841,122.937509 302.5625,121.0625 C301.104159,119.187491 300.375,117.166677 300.375,115 C300.375,112.083319 301.104159,109.812508 302.5625,108.1875 C304.020841,106.562492 306.166652,105.041674 309,103.625 L331,92.5 L300.25,76.5 Z" id="&gt;" fill="#FFFFFF" fill-rule="nonzero"></path>
        <path d="M439.4,117.9 C438.466662,118.833338 437.116676,119.549998 435.35,120.05 C433.583325,120.550003 431.466679,120.8 429,120.8 C426.533321,120.8 424.200011,120.433337 422,119.7 C419.799989,118.966663 418,117.200014 416.6,114.4 L406.7,94.2 C405.699995,92.133323 404.800004,90.1833425 404,88.35 C403.199996,86.5166575 402.333338,84.400012 401.4,82 L400.8,82.1 C401.066668,85.700018 401.216666,89.366648 401.25,93.1 C401.283334,96.833352 401.3,100.499982 401.3,104.1 L401.3,119.6 C400.566663,119.800001 399.450007,120 397.95,120.2 C396.449993,120.400001 394.966674,120.5 393.5,120.5 C392.033326,120.5 390.733339,120.400001 389.6,120.2 C388.466661,120 387.533337,119.600003 386.8,119 C386.066663,118.399997 385.5,117.583338 385.1,116.55 C384.699998,115.516662 384.5,114.166675 384.5,112.5 L384.5,62.5 C385.433338,61.16666 386.866657,60.16667 388.8,59.5 C390.733343,58.83333 392.799989,58.5 395,58.5 C397.466679,58.5 399.816656,58.8833295 402.05,59.65 C404.283344,60.4166705 406.06666,62.166653 407.4,64.9 L417.4,85.1 C418.400005,87.166677 419.299996,89.1166575 420.1,90.95 C420.900004,92.7833425 421.766662,94.899988 422.7,97.3 L423.2,97.2 C422.933332,93.599982 422.766667,90.000018 422.7,86.4 C422.633333,82.799982 422.6,79.200018 422.6,75.6 L422.6,59.4 C423.333337,59.199999 424.449993,59 425.95,58.8 C427.450007,58.599999 428.933326,58.5 430.4,58.5 C433.333348,58.5 435.566659,59.0166615 437.1,60.05 C438.633341,61.0833385 439.4,63.233317 439.4,66.5 L439.4,117.9 Z M471.9,109.2 C473.033339,109.2 474.283327,109.083334 475.65,108.85 C477.016674,108.616665 478.03333,108.300002 478.7,107.9 L478.7,99.9 L471.5,100.5 C469.633324,100.633334 468.1,101.03333 466.9,101.7 C465.699994,102.36667 465.1,103.36666 465.1,104.7 C465.1,106.03334 465.616661,107.116662 466.65,107.95 C467.683338,108.783338 469.433321,109.2 471.9,109.2 Z M471.1,69.9 C474.700018,69.9 477.983318,70.266663 480.95,71 C483.916681,71.733337 486.44999,72.8499925 488.55,74.35 C490.650011,75.8500075 492.266661,77.7499885 493.4,80.05 C494.533339,82.3500115 495.1,85.066651 495.1,88.2 L495.1,110.6 C495.1,112.333342 494.616672,113.749994 493.65,114.85 C492.683329,115.950005 491.53334,116.9 490.2,117.7 C485.866645,120.300013 479.766706,121.6 471.9,121.6 C468.366649,121.6 465.183347,121.26667 462.35,120.6 C459.516652,119.93333 457.083343,118.93334 455.05,117.6 C453.016656,116.26666 451.450005,114.566677 450.35,112.5 C449.249994,110.433323 448.7,108.033347 448.7,105.3 C448.7,100.699977 450.066653,97.166679 452.8,94.7 C455.533347,92.233321 459.766638,90.700003 465.5,90.1 L478.6,88.7 L478.6,88 C478.6,86.066657 477.750009,84.6833375 476.05,83.85 C474.349991,83.0166625 471.900016,82.6 468.7,82.6 C466.166654,82.6 463.700012,82.866664 461.3,83.4 C458.899988,83.933336 456.733343,84.599996 454.8,85.4 C453.933329,84.799997 453.2,83.8833395 452.6,82.65 C451.999997,81.4166605 451.7,80.13334 451.7,78.8 C451.7,77.066658 452.116662,75.6833385 452.95,74.65 C453.783338,73.6166615 455.066658,72.733337 456.8,72 C458.733343,71.266663 461.016653,70.733335 463.65,70.4 C466.283346,70.066665 468.766655,69.9 471.1,69.9 Z M522.5,119.9 C521.83333,120.100001 520.783341,120.299999 519.35,120.5 C517.91666,120.700001 516.433341,120.8 514.9,120.8 C513.433326,120.8 512.116673,120.700001 510.95,120.5 C509.783328,120.299999 508.800004,119.900003 508,119.3 C507.199996,118.699997 506.583335,117.883339 506.15,116.85 C505.716664,115.816661 505.5,114.466675 505.5,112.8 L505.5,82.8 C505.5,81.266659 505.783331,79.9500055 506.35,78.85 C506.91667,77.7499945 507.733328,76.766671 508.8,75.9 C509.866672,75.033329 511.183326,74.2500035 512.75,73.55 C514.316675,72.8499965 516,72.233336 517.8,71.7 C519.600009,71.166664 521.466657,70.7500015 523.4,70.45 C525.333343,70.1499985 527.266657,70 529.2,70 C532.400016,70 534.933324,70.6166605 536.8,71.85 C538.666676,73.0833395 539.6,75.099986 539.6,77.9 C539.6,78.833338 539.466668,79.7499955 539.2,80.65 C538.933332,81.5500045 538.600002,82.366663 538.2,83.1 C536.799993,83.1 535.366674,83.166666 533.9,83.3 C532.433326,83.433334 531,83.633332 529.6,83.9 C528.199993,84.166668 526.88334,84.4499985 525.65,84.75 C524.416661,85.0500015 523.366671,85.399998 522.5,85.8 L522.5,119.9 Z M575.7,118.5 C574.766662,119.300004 573.500008,119.949997 571.9,120.45 C570.299992,120.950002 568.400011,121.2 566.2,121.2 C563.466653,121.2 561.1,120.81667 559.1,120.05 C557.1,119.28333 555.76667,118.200007 555.1,116.8 C554.366663,115.199992 553.516672,112.666684 552.55,109.2 C551.583328,105.733316 550.633338,101.933354 549.7,97.8 C548.766662,93.666646 547.883338,89.466688 547.05,85.2 C546.216662,80.933312 545.566669,77.166683 545.1,73.9 C546.033338,72.966662 547.283326,72.1500035 548.85,71.45 C550.416674,70.7499965 552.133324,70.4 554,70.4 C556.333345,70.4 558.249992,70.9166615 559.75,71.95 C561.250008,72.9833385 562.166665,74.766654 562.5,77.3 C563.16667,82.366692 563.733331,86.5499835 564.2,89.85 C564.666669,93.1500165 565.049999,95.8499895 565.35,97.95 C565.650002,100.05001 565.883333,101.649995 566.05,102.75 C566.216668,103.850005 566.366666,104.73333 566.5,105.4 L566.9,105.4 C567.1,104.333328 567.449997,102.783344 567.95,100.75 C568.450002,98.7166565 569.03333,96.400013 569.7,93.8 C570.36667,91.199987 571.066663,88.3833485 571.8,85.35 C572.533337,82.3166515 573.266663,79.300015 574,76.3 C575.33334,75.566663 576.649994,75.000002 577.95,74.6 C579.250007,74.199998 580.866657,74 582.8,74 C585.133345,74 587.133325,74.366663 588.8,75.1 C590.466675,75.833337 591.533331,76.966659 592,78.5 C592.800004,81.433348 593.566663,84.2833195 594.3,87.05 C595.033337,89.8166805 595.699997,92.3833215 596.3,94.75 C596.900003,97.1166785 597.433331,99.2166575 597.9,101.05 C598.366669,102.883343 598.699999,104.333328 598.9,105.4 L599.4,105.4 C600.133337,100.266641 600.849996,94.933361 601.55,89.4 C602.250004,83.866639 602.899997,78.233362 603.5,72.5 C604.700006,71.766663 605.96666,71.233335 607.3,70.9 C608.63334,70.566665 609.96666,70.4 611.3,70.4 C613.633345,70.4 615.566659,70.9 617.1,71.9 C618.633341,72.9 619.4,74.633321 619.4,77.1 C619.4,78.166672 619.233335,79.766656 618.9,81.9 C618.566665,84.033344 618.133336,86.43332 617.6,89.1 C617.066664,91.76668 616.450003,94.566652 615.75,97.5 C615.049997,100.433348 614.350003,103.266653 613.65,106 C612.949996,108.733347 612.283337,111.199989 611.65,113.4 C611.016664,115.600011 610.466669,117.299994 610,118.5 C609.066662,119.300004 607.633343,119.949997 605.7,120.45 C603.766657,120.950002 601.700011,121.2 599.5,121.2 C593.899972,121.2 590.6,119.800014 589.6,117 C589.199998,115.799994 588.700003,114.283343 588.1,112.45 C587.499997,110.616657 586.86667,108.600011 586.2,106.4 C585.53333,104.199989 584.900003,101.916678 584.3,99.55 C583.699997,97.1833215 583.200002,94.900011 582.8,92.7 C582.333331,95.033345 581.76667,97.4499875 581.1,99.95 C580.43333,102.450012 579.750004,104.883321 579.05,107.25 C578.349996,109.616679 577.700003,111.783324 577.1,113.75 C576.499997,115.716676 576.033335,117.299994 575.7,118.5 Z M675.1,119.9 C674.43333,120.100001 673.383341,120.299999 671.95,120.5 C670.51666,120.700001 669.033341,120.8 667.5,120.8 C666.033326,120.8 664.716673,120.700001 663.55,120.5 C662.383328,120.299999 661.400004,119.9 660.6,119.3 C659.8,118.699997 659.183336,117.883339 658.75,116.85 C658.316665,115.816662 658.1,114.466675 658.1,112.8 L658.1,90.6 C658.1,87.866653 657.416674,85.9500055 656.05,84.85 C654.683327,83.7499945 653.00001,83.2 651,83.2 C649.66666,83.2 648.400006,83.366665 647.2,83.7 C645.999994,84.033335 645.033337,84.433331 644.3,84.9 L644.3,119.9 C643.63333,120.100001 642.583341,120.299999 641.15,120.5 C639.71666,120.700001 638.233341,120.8 636.7,120.8 C635.233326,120.8 633.916673,120.700001 632.75,120.5 C631.583327,120.299999 630.600004,119.9 629.8,119.3 C628.999996,118.699997 628.383336,117.883339 627.95,116.85 C627.516665,115.816662 627.3,114.466675 627.3,112.8 L627.3,54.8 C628.033337,54.666666 629.116659,54.4833345 630.55,54.25 C631.983341,54.0166655 633.433326,53.9 634.9,53.9 C636.366674,53.9 637.683328,53.999999 638.85,54.2 C640.016673,54.4 640.999996,54.799997 641.8,55.4 C642.600004,56.000003 643.216664,56.8166615 643.65,57.85 C644.083335,58.8833385 644.3,60.233325 644.3,61.9 L644.3,71.7 C645.166671,71.366665 646.483324,70.9833355 648.25,70.55 C650.016676,70.1166645 651.966656,69.9 654.1,69.9 C660.700033,69.9 665.849982,71.5499835 669.55,74.85 C673.250019,78.1500165 675.1,83.066634 675.1,89.6 L675.1,119.9 Z M706.4,109.2 C707.533339,109.2 708.783327,109.083334 710.15,108.85 C711.516674,108.616665 712.53333,108.300002 713.2,107.9 L713.2,99.9 L706,100.5 C704.133324,100.633334 702.6,101.03333 701.4,101.7 C700.199994,102.36667 699.6,103.36666 699.6,104.7 C699.6,106.03334 700.116661,107.116662 701.15,107.95 C702.183338,108.783338 703.933321,109.2 706.4,109.2 Z M705.6,69.9 C709.200018,69.9 712.483318,70.266663 715.45,71 C718.416682,71.733337 720.94999,72.8499925 723.05,74.35 C725.150011,75.8500075 726.766661,77.7499885 727.9,80.05 C729.033339,82.3500115 729.6,85.066651 729.6,88.2 L729.6,110.6 C729.6,112.333342 729.116671,113.749994 728.15,114.85 C727.183329,115.950005 726.03334,116.9 724.7,117.7 C720.366645,120.300013 714.266706,121.6 706.4,121.6 C702.866649,121.6 699.683348,121.26667 696.85,120.6 C694.016652,119.93333 691.583343,118.93334 689.55,117.6 C687.516656,116.26666 685.950006,114.566677 684.85,112.5 C683.749994,110.433323 683.2,108.033347 683.2,105.3 C683.2,100.699977 684.566653,97.166679 687.3,94.7 C690.033347,92.233321 694.266638,90.700003 700,90.1 L713.1,88.7 L713.1,88 C713.1,86.066657 712.250008,84.6833375 710.55,83.85 C708.849991,83.0166625 706.400016,82.6 703.2,82.6 C700.666654,82.6 698.200012,82.866664 695.8,83.4 C693.399988,83.933336 691.233343,84.599996 689.3,85.4 C688.433329,84.799997 687.7,83.8833395 687.1,82.65 C686.499997,81.4166605 686.2,80.13334 686.2,78.8 C686.2,77.066658 686.616663,75.6833385 687.45,74.65 C688.283338,73.6166615 689.566658,72.733337 691.3,72 C693.233343,71.266663 695.516654,70.733335 698.15,70.4 C700.783346,70.066665 703.266655,69.9 705.6,69.9 Z M757.3,119.9 C756.566663,120.033334 755.483341,120.216665 754.05,120.45 C752.61666,120.683335 751.166674,120.8 749.7,120.8 C748.233326,120.8 746.916673,120.700001 745.75,120.5 C744.583327,120.299999 743.600004,119.9 742.8,119.3 C741.999996,118.699997 741.383336,117.883339 740.95,116.85 C740.516665,115.816662 740.3,114.466675 740.3,112.8 L740.3,54.8 C741.033337,54.666666 742.11666,54.4833345 743.55,54.25 C744.983341,54.0166655 746.433326,53.9 747.9,53.9 C749.366674,53.9 750.683328,53.999999 751.85,54.2 C753.016673,54.4 753.999996,54.799997 754.8,55.4 C755.600004,56.000003 756.216665,56.8166615 756.65,57.85 C757.083336,58.8833385 757.3,60.233325 757.3,61.9 L757.3,119.9 Z M800.2,71.6 C795.066641,71.6 791.133347,73.166651 788.4,76.3 C785.666653,79.433349 784.3,83.866638 784.3,89.6 C784.3,95.400029 785.816652,99.866651 788.85,103 C791.883349,106.133349 795.966641,107.7 801.1,107.7 C803.833347,107.7 806.149991,107.333337 808.05,106.6 C809.95001,105.866663 811.766658,105.033338 813.5,104.1 C814.633339,105.033338 815.516664,106.149993 816.15,107.45 C816.783337,108.750007 817.1,110.266658 817.1,112 C817.1,114.733347 815.583349,117.049991 812.55,118.95 C809.516652,120.850009 804.900031,121.8 798.7,121.8 C794.233311,121.8 790.033353,121.166673 786.1,119.9 C782.166647,118.633327 778.733348,116.683346 775.8,114.05 C772.866652,111.416653 770.550009,108.083354 768.85,104.05 C767.149992,100.016646 766.3,95.200028 766.3,89.6 C766.3,84.399974 767.116659,79.8166865 768.75,75.85 C770.383342,71.8833135 772.616653,68.533347 775.45,65.8 C778.283348,63.066653 781.599981,61 785.4,59.6 C789.200019,58.199993 793.266645,57.5 797.6,57.5 C803.733364,57.5 808.483317,58.5 811.85,60.5 C815.216684,62.5 816.9,65.066651 816.9,68.2 C816.9,69.933342 816.466671,71.433327 815.6,72.7 C814.733329,73.966673 813.733339,74.966663 812.6,75.7 C810.866658,74.566661 809.016677,73.600004 807.05,72.8 C805.083324,72 802.800013,71.6 800.2,71.6 Z M874.1,95.7 C874.1,99.833354 873.466673,103.51665 872.2,106.75 C870.933327,109.98335 869.150012,112.699989 866.85,114.9 C864.549988,117.100011 861.800016,118.766661 858.6,119.9 C855.399984,121.033339 851.833353,121.6 847.9,121.6 C843.966647,121.6 840.400016,121.000006 837.2,119.8 C833.999984,118.599994 831.250012,116.883345 828.95,114.65 C826.649989,112.416656 824.866673,109.700016 823.6,106.5 C822.333327,103.299984 821.7,99.70002 821.7,95.7 C821.7,91.766647 822.333327,88.200016 823.6,85 C824.866673,81.799984 826.649989,79.0833445 828.95,76.85 C831.250012,74.6166555 833.999984,72.9 837.2,71.7 C840.400016,70.499994 843.966647,69.9 847.9,69.9 C851.833353,69.9 855.399984,70.5166605 858.6,71.75 C861.800016,72.9833395 864.549988,74.7166555 866.85,76.95 C869.150012,79.1833445 870.933327,81.899984 872.2,85.1 C873.466673,88.300016 874.1,91.833314 874.1,95.7 Z M839.1,95.7 C839.1,99.766687 839.883325,102.883322 841.45,105.05 C843.016675,107.216678 845.199986,108.3 848,108.3 C850.800014,108.3 852.949993,107.200011 854.45,105 C855.950008,102.799989 856.7,99.70002 856.7,95.7 C856.7,91.69998 855.933341,88.6166775 854.4,86.45 C852.866659,84.2833225 850.700014,83.2 847.9,83.2 C845.099986,83.2 842.933341,84.2833225 841.4,86.45 C839.866659,88.6166775 839.1,91.69998 839.1,95.7 Z M880.3,95.7 C880.3,91.299978 880.96666,87.4833495 882.3,84.25 C883.63334,81.0166505 885.483322,78.333344 887.85,76.2 C890.216679,74.066656 892.983318,72.4833385 896.15,71.45 C899.316683,70.4166615 902.733315,69.9 906.4,69.9 C907.73334,69.9 909.033327,70.0166655 910.3,70.25 C911.566673,70.4833345 912.599996,70.766665 913.4,71.1 L913.4,54.9 C914.06667,54.699999 915.133326,54.4833345 916.6,54.25 C918.066674,54.0166655 919.566659,53.9 921.1,53.9 C922.566674,53.9 923.883328,53.999999 925.05,54.2 C926.216673,54.4 927.199996,54.799997 928,55.4 C928.8,56.000003 929.399998,56.8166615 929.8,57.85 C930.200002,58.8833385 930.4,60.233325 930.4,61.9 L930.4,109.3 C930.4,112.433349 928.933348,114.933324 926,116.8 C924.066657,118.066673 921.566682,119.183329 918.5,120.15 C915.433318,121.116671 911.90002,121.6 907.9,121.6 C903.566645,121.6 899.683351,121.000006 896.25,119.8 C892.81665,118.599994 889.916679,116.866678 887.55,114.6 C885.183322,112.333322 883.38334,109.616683 882.15,106.45 C880.916661,103.283318 880.3,99.70002 880.3,95.7 Z M908.7,83.2 C905.099982,83.2 902.333343,84.233323 900.4,86.3 C898.466657,88.366677 897.5,91.499979 897.5,95.7 C897.5,99.833354 898.399991,102.94999 900.2,105.05 C902,107.150011 904.599983,108.2 908,108.2 C909.200006,108.2 910.283329,108.016669 911.25,107.65 C912.216671,107.283332 912.966664,106.866669 913.5,106.4 L913.5,84.4 C912.16666,83.599996 910.566676,83.2 908.7,83.2 Z M940.6,57.9 C940.6,55.366654 941.449992,53.233342 943.15,51.5 C944.850009,49.766658 947.099986,48.9 949.9,48.9 C952.700014,48.9 954.949992,49.766658 956.65,51.5 C958.350009,53.233342 959.2,55.366654 959.2,57.9 C959.2,60.433346 958.350009,62.566658 956.65,64.3 C954.949992,66.033342 952.700014,66.9 949.9,66.9 C947.099986,66.9 944.850009,66.033342 943.15,64.3 C941.449992,62.566658 940.6,60.433346 940.6,57.9 Z M958.4,119.9 C957.666663,120.033334 956.583341,120.216665 955.15,120.45 C953.71666,120.683335 952.266674,120.8 950.8,120.8 C949.333326,120.8 948.016672,120.7 946.85,120.5 C945.683327,120.299999 944.700004,119.900003 943.9,119.3 C943.099996,118.7 942.483336,117.883339 942.05,116.85 C941.616665,115.816662 941.4,114.466675 941.4,112.8 L941.4,72.1 C942.133337,71.966666 943.21666,71.7833345 944.65,71.55 C946.083341,71.3166655 947.533326,71.2 949,71.2 C950.466674,71.2 951.783328,71.299999 952.95,71.5 C954.116673,71.7 955.099996,72.099997 955.9,72.7 C956.700004,73.300003 957.316665,74.1166615 957.75,75.15 C958.183336,76.1833385 958.4,77.533325 958.4,79.2 L958.4,119.9 Z M1000,89.2 C1000,87.133323 999.416673,85.6166715 998.25,84.65 C997.083327,83.6833285 995.50001,83.2 993.5,83.2 C992.16666,83.2 990.850007,83.366665 989.55,83.7 C988.249994,84.033335 987.133338,84.53333 986.2,85.2 L986.2,119.9 C985.53333,120.100001 984.483341,120.299999 983.05,120.5 C981.616659,120.700001 980.133341,120.8 978.6,120.8 C977.133326,120.8 975.816673,120.700001 974.65,120.5 C973.483328,120.299999 972.500004,119.9 971.7,119.3 C970.899996,118.699997 970.283336,117.883339 969.85,116.85 C969.416665,115.816662 969.2,114.466675 969.2,112.8 L969.2,82.8 C969.2,80.999991 969.58333,79.533339 970.35,78.4 C971.116671,77.266661 972.16666,76.233338 973.5,75.3 C975.766678,73.699992 978.61665,72.4 982.05,71.4 C985.483351,70.4 989.299979,69.9 993.5,69.9 C1001.03337,69.9 1006.83331,71.5499835 1010.9,74.85 C1014.96669,78.1500165 1017,82.733304 1017,88.6 L1017,119.9 C1016.33333,120.100001 1015.28334,120.299999 1013.85,120.5 C1012.41666,120.700001 1010.93334,120.8 1009.4,120.8 C1007.93333,120.8 1006.61667,120.700001 1005.45,120.5 C1004.28333,120.299999 1003.3,119.9 1002.5,119.3 C1001.7,118.699997 1001.08334,117.883339 1000.65,116.85 C1000.21666,115.816662 1000,114.466675 1000,112.8 L1000,89.2 Z M1051.2,69.9 C1055.00002,69.9 1058.44998,70.3833285 1061.55,71.35 C1064.65002,72.3166715 1067.26666,73.566659 1069.4,75.1 C1070.73334,76.033338 1071.78333,77.066661 1072.55,78.2 C1073.31667,79.333339 1073.7,80.799991 1073.7,82.6 L1073.7,117.6 C1073.7,121.133351 1073.03334,124.183321 1071.7,126.75 C1070.36666,129.316679 1068.55001,131.449992 1066.25,133.15 C1063.94999,134.850009 1061.25002,136.099996 1058.15,136.9 C1055.04998,137.700004 1051.73335,138.1 1048.2,138.1 C1042.1333,138.1 1037.36668,137.283342 1033.9,135.65 C1030.43332,134.016658 1028.7,131.366685 1028.7,127.7 C1028.7,126.166659 1029.01666,124.816672 1029.65,123.65 C1030.28334,122.483327 1031,121.600003 1031.8,121 C1033.73334,122.066672 1035.91665,122.966663 1038.35,123.7 C1040.78335,124.433337 1043.29999,124.8 1045.9,124.8 C1049.50002,124.8 1052.36666,124.200006 1054.5,123 C1056.63334,121.799994 1057.7,119.86668 1057.7,117.2 L1057.7,115.6 C1054.96665,116.800006 1051.63335,117.4 1047.7,117.4 C1044.69998,117.4 1041.85001,116.950004 1039.15,116.05 C1036.44999,115.149996 1034.08334,113.75001 1032.05,111.85 C1030.01666,109.949991 1028.38334,107.500015 1027.15,104.5 C1025.91666,101.499985 1025.3,97.933354 1025.3,93.8 C1025.3,89.733313 1025.94999,86.200015 1027.25,83.2 C1028.55001,80.199985 1030.34999,77.7166765 1032.65,75.75 C1034.95001,73.7833235 1037.68332,72.3166715 1040.85,71.35 C1044.01668,70.3833285 1047.46665,69.9 1051.2,69.9 Z M1057.4,84.4 C1056.93333,84.133332 1056.25,83.866668 1055.35,83.6 C1054.45,83.333332 1053.33334,83.2 1052,83.2 C1048.73332,83.2 1046.28334,84.1166575 1044.65,85.95 C1043.01666,87.7833425 1042.2,90.399983 1042.2,93.8 C1042.2,97.666686 1043.01666,100.449992 1044.65,102.15 C1046.28334,103.850009 1048.36665,104.7 1050.9,104.7 C1053.63335,104.7 1055.79999,104.066673 1057.4,102.8 L1057.4,84.4 Z" id="NarwhalCoding" fill="#FFFFFF" fill-rule="nonzero"></path>
        <path d="M245.302536,90.3775551 C256.032945,107.879288 265.155353,129.478601 277.378563,137.92581 C285.147369,143.298033 305.619387,143.626895 296.861779,151.509996 C294.370577,153.752023 277.486563,155.667588 277.486563,155.667588 C277.486563,155.667588 274.40976,176.325922 269.933757,169.683857 C263.146551,159.611539 246.147337,137.428915 230.100923,136.881611 C214.65211,136.35111 182.847284,144.75511 164.151268,144.75511 C141.742449,144.75511 122.086433,139.08283 107.40082,129.240956 C107.40082,129.240956 94.8392099,134.867627 88.2368044,130.654825 C85.4840021,128.900091 95.3360103,119.202244 95.3360103,119.202244 C87.2720036,110.757436 83,101.146006 83,90.3775551 C83,60.3454361 119.33363,36 164.151268,36 C208.968906,36 229.606523,64.7766799 245.302536,90.3775551 Z" id="Path" stroke="#FFFFFF" stroke-width="13.5" fill-rule="nonzero"></path>
        <path d="M102.487208,82.8593234 C100.915207,82.8593234 99.6408056,84.1339661 99.6408056,85.7062655 C99.6408056,87.2785649 100.915207,88.5532077 102.487208,88.5532077 C104.059209,88.5532077 105.33361,87.2785649 105.33361,85.7062655 C105.33361,84.1339661 104.059209,82.8593234 102.487208,82.8593234 Z" id="Path" stroke="#FFFFFF" stroke-width="5.5" fill="#A14B9E" fill-rule="nonzero"></path>
        <path d="M146.272845,82.8593234 C144.700843,82.8593234 143.426442,84.1339661 143.426442,85.7062655 C143.426442,87.2785649 144.700843,88.5532077 146.272845,88.5532077 C147.844846,88.5532077 149.119247,87.2785649 149.119247,85.7062655 C149.119247,84.1339661 147.844846,82.8593234 146.272845,82.8593234 Z" id="Path" stroke="#FFFFFF" stroke-width="5.5" fill="#A14B9E" fill-rule="nonzero"></path>
        <path d="M114.684827,65.0719361 C120.240831,61.7377012 121.244032,57.2920546 119.828031,54.5723367 C119.588031,54.1114489 118.85363,53.0336437 113.991226,47.6278143 L112.390425,48.4943793 C116.981628,53.5977511 118.104829,55.0524281 118.27523,55.3812908 C119.32643,57.3952743 118.36883,60.8183261 113.784826,63.56925 C110.002423,65.837682 107.22802,65.921698 105.759219,63.8188975 C105.560019,63.5356436 104.705618,61.8937309 101.876015,55.5133159 L100.376015,56.7519518 C103.352017,63.4636299 104.052818,64.4382155 104.324018,64.8222886 C104.919218,65.6744509 106.27282,67.0643156 108.764022,67.0643156 C110.283223,67.0643156 112.227224,66.5458168 114.684827,65.0719361 Z" id="Path" stroke="#FFFFFF" stroke-width="11.5" fill="#A14B9E" fill-rule="nonzero"></path>
        <path d="M135.547236,102.495063 C135.547236,101.770125 134.959235,101.179612 134.234435,101.179612 C133.509634,101.179612 132.921633,101.770125 132.921633,102.495063 C132.921633,105.303597 129.36243,107.67765 125.150427,107.67765 C120.938423,107.67765 117.37682,105.303597 117.37682,102.495063 C117.37682,101.770125 116.78882,101.179612 116.064019,101.179612 C115.339219,101.179612 114.751218,101.770125 114.751218,102.495063 C114.751218,106.801483 119.416822,110.30615 125.150427,110.30615 C130.881632,110.30615 135.547236,106.801483 135.547236,102.495063 Z" id="Path" stroke="#FFFFFF" stroke-width="5.5" fill="#A14B9E" fill-rule="nonzero"></path>
        <path d="M175.749669,119.927182 C176.40727,119.622324 176.69767,118.842176 176.39287,118.18205 C176.08807,117.521924 175.308069,117.231469 174.648068,117.538727 C174.576068,117.572334 167.188862,120.920971 158.884855,120.090413 C158.404855,120.040004 157.272054,119.871972 157.096854,119.33907 C156.576053,117.752368 160.252856,113.057074 164.01126,109.670029 C164.54886,109.182736 164.59446,108.352178 164.10726,107.814476 C163.622459,107.274373 162.792058,107.231164 162.252058,107.718457 C160.128056,109.631622 153.297651,116.182469 154.600852,120.162427 C154.932052,121.173019 155.899253,122.43566 158.623255,122.709312 C159.640856,122.810131 160.641657,122.85814 161.620858,122.85814 C169.293664,122.853339 175.456869,120.059207 175.749669,119.927182 Z" id="Path" stroke="#FFFFFF" stroke-width="5.5" fill="#A14B9E" fill-rule="nonzero"></path>
        <path d="M85,18 C85,18 95.6779872,43.8428817 101.680463,57.6773169 C103.651747,62.2178118 105.117634,65.4659179 105.536802,66.0802921 C106.849394,68.0041892 109.615898,69.2060129 114.715368,66.0802921 C119.814837,62.9545714 120.73461,58.9305424 119.522618,56.5538198 C119.15375,55.8292987 116.885457,53.1392697 113.675833,49.4921875 C103.802647,38.2719024 85,18 85,18 Z" id="Shape" stroke="#FFFFFF" stroke-width="7.5" fill="#FFFFFF" fill-rule="nonzero"></path>
    </g>
</svg>