<?xml version="1.0" standalone="no"?>
<!DOCTYPE svg PUBLIC "-//W3C//DTD SVG 20010904//EN"
 "http://www.w3.org/TR/2001/REC-SVG-20010904/DTD/svg10.dtd">
<svg version="1.0" xmlns="http://www.w3.org/2000/svg"
 width="300.000000pt" height="300.000000pt" viewBox="0 0 300.000000 300.000000"
 preserveAspectRatio="xMidYMid meet">
<metadata>
Created by potrace 1.11, written by Peter Selinger 2001-2013
</metadata>
<g transform="translate(0.000000,300.000000) scale(0.100000,-0.100000)"
fill="#000000" stroke="none">
<path d="M0 1500 l0 -1500 1500 0 1500 0 0 1500 0 1500 -1500 0 -1500 0 0
-1500z m616 561 l50 -53 90 35 c172 68 316 93 503 84 142 -6 223 -24 329 -73
211 -96 377 -281 582 -649 167 -299 219 -358 349 -399 114 -36 141 -51 141
-81 0 -35 -41 -61 -117 -74 -38 -7 -78 -14 -90 -17 -16 -3 -24 -15 -32 -54
-15 -69 -37 -110 -60 -110 -12 0 -37 25 -67 68 -78 108 -199 223 -277 262 -66
32 -69 33 -165 27 -53 -3 -180 -20 -282 -37 -392 -66 -626 -47 -865 70 l-100
48 -62 -15 c-60 -15 -112 -13 -142 6 -20 13 -7 54 30 96 l31 35 -26 35 c-15
19 -41 65 -59 103 -30 62 -32 75 -32 173 0 101 1 108 37 180 20 40 60 100 89
132 l51 58 -91 218 c-50 121 -91 222 -91 225 0 3 51 -49 113 -116 61 -68 135
-147 163 -177z"/>
<path d="M420 2227 c0 -6 117 -286 154 -370 14 -32 32 -60 40 -63 21 -8 85 25
103 53 11 16 13 30 7 43 -5 11 -69 87 -142 169 -130 146 -162 179 -162 168z"/>
<path d="M1070 2099 c-88 -11 -203 -39 -280 -68 -88 -34 -88 -34 -57 -78 38
-55 35 -87 -11 -134 -68 -68 -129 -66 -164 6 -12 25 -25 45 -29 45 -4 0 -27
-22 -51 -48 -144 -161 -151 -390 -15 -547 l34 -39 -44 -54 c-24 -29 -41 -57
-38 -63 9 -14 107 -11 152 5 38 13 40 13 145 -39 124 -61 236 -91 391 -107
122 -12 212 -4 466 37 341 56 393 55 498 -14 66 -43 172 -149 238 -236 24 -33
50 -60 57 -60 8 0 21 31 32 78 18 73 20 77 47 77 54 0 174 30 187 47 18 25 2
35 -107 71 -152 51 -191 94 -381 427 -111 196 -169 284 -255 388 -113 136
-281 244 -449 287 -93 23 -261 32 -366 19z m-592 -481 c7 -7 12 -22 12 -35 0
-27 -42 -42 -65 -23 -28 23 -11 70 25 70 9 0 21 -5 28 -12z m476 -10 c16 -26
-4 -53 -40 -53 -23 0 -30 5 -32 23 -2 13 -1 30 2 38 8 20 56 14 70 -8z m-334
-192 c11 -30 39 -46 77 -46 35 0 51 11 67 41 17 34 40 30 44 -7 2 -25 -3 -37
-28 -58 -53 -44 -171 -31 -200 23 -14 27 -13 58 3 64 22 10 27 7 37 -17z m496
-61 c4 -9 -9 -34 -31 -61 -51 -62 -40 -71 64 -50 84 17 101 16 101 -10 0 -17
-35 -32 -111 -46 -147 -28 -189 36 -93 141 38 43 61 51 70 26z"/>
</g>
</svg>
