<svg xmlns="http://www.w3.org/2000/svg" xmlns:xlink="http://www.w3.org/1999/xlink" version="1.1" x="0px" y="0px" viewBox="0 0 100 125" style="enable-background:new 0 0 100 100;" xml:space="preserve"><path d="M94.4,45.2c-2,0-3.7,1.2-4.4,3H60.2v-4.8h11.2l11.3-11.3c0.6,0.2,1.2,0.4,1.9,0.4c2.6,0,4.8-2.2,4.8-4.8s-2.2-4.8-4.8-4.8  s-4.8,2.2-4.8,4.8c0,0.7,0.1,1.3,0.4,1.9L69.9,39.8h-9.7v-9.7l10.3-10.3c0.6,0.2,1.2,0.4,1.9,0.4c2.6,0,4.8-2.2,4.8-4.8  c0-2.6-2.2-4.8-4.8-4.8s-4.8,2.2-4.8,4.8c0,0.7,0.1,1.3,0.4,1.9L56.6,28.6v11.2h-4.8V10c1.8-0.7,3-2.4,3-4.4c0-2.6-2.2-4.8-4.8-4.8  c-2.6,0-4.8,2.2-4.8,4.8c0,2,1.2,3.7,3,4.4v29.8h-4.8V28.6L32.1,17.3c0.2-0.6,0.4-1.2,0.4-1.9c0-2.6-2.2-4.8-4.8-4.8  s-4.8,2.2-4.8,4.8c0,2.6,2.2,4.8,4.8,4.8c0.7,0,1.3-0.1,1.9-0.4l10.3,10.3v9.7h-9.7L19.8,29.5c0.2-0.6,0.4-1.2,0.4-1.9  c0-2.6-2.2-4.8-4.8-4.8c-2.6,0-4.8,2.2-4.8,4.8s2.2,4.8,4.8,4.8c0.7,0,1.3-0.1,1.9-0.4l11.3,11.3h11.2v4.8H10c-0.7-1.8-2.4-3-4.4-3  c-2.6,0-4.8,2.2-4.8,4.8c0,2.6,2.2,4.8,4.8,4.8c2,0,3.7-1.2,4.4-3h29.8v4.8H28.6L17.3,67.9c-0.6-0.2-1.2-0.4-1.9-0.4  c-2.6,0-4.8,2.2-4.8,4.8s2.2,4.8,4.8,4.8c2.6,0,4.8-2.2,4.8-4.8c0-0.7-0.1-1.3-0.4-1.9l10.3-10.3h9.7v9.7L29.5,80.2  c-0.6-0.2-1.2-0.4-1.9-0.4c-2.6,0-4.8,2.2-4.8,4.8s2.2,4.8,4.8,4.8s4.8-2.2,4.8-4.8c0-0.7-0.1-1.3-0.4-1.9l11.3-11.3V60.2h4.8V90  c-1.8,0.7-3,2.4-3,4.4c0,2.6,2.2,4.8,4.8,4.8c2.6,0,4.8-2.2,4.8-4.8c0-2-1.2-3.7-3-4.4V60.2h4.8v11.2l11.3,11.3  c-0.2,0.6-0.4,1.2-0.4,1.9c0,2.6,2.2,4.8,4.8,4.8s4.8-2.2,4.8-4.8s-2.2-4.8-4.8-4.8c-0.7,0-1.3,0.1-1.9,0.4L60.2,69.9v-9.7h9.7  l10.3,10.3c-0.2,0.6-0.4,1.2-0.4,1.9c0,2.6,2.2,4.8,4.8,4.8s4.8-2.2,4.8-4.8s-2.2-4.8-4.8-4.8c-0.7,0-1.3,0.1-1.9,0.4L71.4,56.6  H60.2v-4.8H90c0.7,1.8,2.4,3,4.4,3c2.6,0,4.8-2.2,4.8-4.8C99.2,47.4,97,45.2,94.4,45.2z M84.6,26.5c0.7,0,1.2,0.5,1.2,1.2  c0,0.7-0.5,1.2-1.2,1.2s-1.2-0.5-1.2-1.2C83.4,27,83.9,26.5,84.6,26.5z M72.3,14.2c0.7,0,1.2,0.5,1.2,1.2c0,0.7-0.5,1.2-1.2,1.2  s-1.2-0.5-1.2-1.2C71.1,14.8,71.7,14.2,72.3,14.2z M26.5,15.4c0-0.7,0.5-1.2,1.2-1.2c0.7,0,1.2,0.5,1.2,1.2c0,0.7-0.5,1.2-1.2,1.2  C27,16.6,26.5,16.1,26.5,15.4z M14.2,27.7c0-0.7,0.5-1.2,1.2-1.2c0.7,0,1.2,0.5,1.2,1.2c0,0.7-0.5,1.2-1.2,1.2  C14.8,28.9,14.2,28.3,14.2,27.7z M15.4,73.5c-0.7,0-1.2-0.5-1.2-1.2s0.5-1.2,1.2-1.2c0.7,0,1.2,0.5,1.2,1.2S16.1,73.5,15.4,73.5z   M27.7,85.8c-0.7,0-1.2-0.5-1.2-1.2s0.5-1.2,1.2-1.2c0.7,0,1.2,0.5,1.2,1.2S28.3,85.8,27.7,85.8z M73.5,84.6c0,0.7-0.5,1.2-1.2,1.2  s-1.2-0.5-1.2-1.2s0.5-1.2,1.2-1.2S73.5,83.9,73.5,84.6z M85.8,72.3c0,0.7-0.5,1.2-1.2,1.2s-1.2-0.5-1.2-1.2s0.5-1.2,1.2-1.2  S85.8,71.7,85.8,72.3z M56.6,43.4v4.8h-4.8v-4.8H56.6z M50,4.4c0.7,0,1.2,0.5,1.2,1.2c0,0.7-0.5,1.2-1.2,1.2c-0.7,0-1.2-0.5-1.2-1.2  C48.8,4.9,49.3,4.4,50,4.4z M43.4,43.4h4.8v4.8h-4.8V43.4z M5.6,51.2c-0.7,0-1.2-0.5-1.2-1.2c0-0.7,0.5-1.2,1.2-1.2  c0.7,0,1.2,0.5,1.2,1.2C6.8,50.7,6.3,51.2,5.6,51.2z M43.4,56.6v-4.8h4.8v4.8H43.4z M50,95.6c-0.7,0-1.2-0.5-1.2-1.2  s0.5-1.2,1.2-1.2c0.7,0,1.2,0.5,1.2,1.2S50.7,95.6,50,95.6z M56.6,56.6h-4.8v-4.8h4.8V56.6z M94.4,51.2c-0.7,0-1.2-0.5-1.2-1.2  c0-0.7,0.5-1.2,1.2-1.2s1.2,0.5,1.2,1.2C95.6,50.7,95.1,51.2,94.4,51.2z"/><text x="0" y="115" fill="#000000" font-size="5px" font-weight="bold" font-family="'Helvetica Neue', Helvetica, Arial-Unicode, Arial, Sans-serif">Created by Wenjie</text><text x="0" y="120" fill="#000000" font-size="5px" font-weight="bold" font-family="'Helvetica Neue', Helvetica, Arial-Unicode, Arial, Sans-serif">from the Noun Project</text></svg>