<svg xmlns="http://www.w3.org/2000/svg" xmlns:xlink="http://www.w3.org/1999/xlink" viewBox="0 0 64 80" version="1.1" x="0px" y="0px"><title>svg/082-laugh-expression-face-boy-emoticon-man</title><desc>Created with Sketch.</desc><g stroke="none" stroke-width="1" fill="none" fill-rule="evenodd"><g transform="translate(-168.000000, -326.000000)"><g transform="translate(91.000000, 86.000000)" fill="#000000" fill-rule="nonzero"><path d="M86.5,290.005384 C83.3716441,290.005384 80,284.74618 80,280.508396 C80,278.141624 80.5656253,276.320523 81.6048006,275.216448 C80.8295702,267.714931 80.7987469,262.2949 81.5210926,258.922686 C82.9692134,252.162248 87.5352187,248.16202 91.872111,249.580192 C95.8040782,240.704407 106.066073,238.025391 117.726696,241.420757 C129.183544,244.756787 138.657019,253.037738 140.052544,261.97246 C140.195733,262.889211 139.120964,263.489439 138.415137,262.886907 C136.702106,261.424571 135.015579,260.482624 133.345746,260.046819 C137.883485,263.449448 140.450663,267.779643 140.994626,273.003651 C141.098617,274.002341 139.829858,274.513789 139.211769,273.722338 C138.05445,272.240412 136.904946,271.00361 135.764875,270.009044 C136.778149,271.86981 137.249363,273.991544 137.182178,276.362928 C137.716502,277.430718 138,278.832809 138,280.508396 C138,284.74618 134.628356,290.005384 131.5,290.005384 C131.090067,290.005384 130.72104,289.937075 130.390779,289.806203 C126.424292,298.225767 118.343497,304 109,304 C99.6565028,304 91.575708,298.225767 87.6092207,289.806203 C87.2789603,289.937075 86.9099332,290.005384 86.5,290.005384 Z M85.026678,274.040501 C85.0308326,273.816769 85.0355742,273.59513 85.0409697,273.371366 C85.0516573,272.928131 85.3529191,272.54485 85.7810838,272.429754 C90.7934464,271.082377 93.5106583,267.323038 94.0029455,260.923304 C94.0751531,259.984605 95.2862517,259.65671 95.8221728,260.430762 C99.4878058,265.725181 103.82835,267.354827 114.829093,268.967276 C118.731512,269.539279 120.080008,269.754701 122.09034,270.16816 C126.076653,270.988013 129.391028,272.077289 132.450461,273.70037 C132.612393,273.786277 132.744358,273.913066 132.836271,274.064235 C133.055454,274.021935 133.277083,274 133.5,274 C134.078382,274 134.607504,274.101235 135.083506,274.29652 C134.654297,271.229283 132.989961,268.795838 130.105843,266.948722 C129.168586,266.348462 129.765468,264.896289 130.853938,265.128657 C133.340085,265.659403 135.783099,267.133316 138.194014,269.530685 C136.807843,265.577624 133.831187,262.323156 129.220816,259.739558 C128.393921,259.276176 128.61562,258.02963 129.55158,257.879773 C132.192766,257.45689 134.817137,258.058781 137.40278,259.65361 C134.866114,252.581761 126.777898,246.119459 117.16739,243.320163 C105.98335,240.062536 96.5172007,242.746163 93.3519488,251.228477 C93.1404323,251.795304 92.477958,252.045946 91.9442116,251.761084 C88.746614,250.054516 84.7966053,253.162659 83.4767569,259.326222 C82.8320733,262.336831 82.8390669,267.274357 83.5053518,274.109534 C83.8183078,274.037041 84.1501419,274 84.5,274 C84.6765592,274 84.8523102,274.01376 85.026678,274.040501 Z M85.0040126,276.0813 C84.834305,276.027951 84.6654743,276 84.5,276 C82.963007,276 82,277.428281 82,280.5 C82,283.771163 84.7102222,288 86.5,288 C86.6138217,288 86.7199992,287.98221 86.8189108,287.945233 C85.6466544,284.880196 85,281.520514 85,277.999056 C85,277.272248 85.0011313,276.645969 85.0040126,276.0813 Z M131.181089,287.945233 C131.280001,287.98221 131.386178,288 131.5,288 C133.289778,288 136,283.771163 136,280.5 C136,277.428281 135.036993,276 133.5,276 C133.334538,276 133.16572,276.027947 132.996025,276.081288 C132.998915,276.634527 133,277.249723 133,277.999056 C133,281.520514 132.353346,284.880196 131.181088,287.945237 Z M87,277.999056 C87,291.271649 96.8692148,301.999056 109,301.999056 C121.130785,301.999056 131,291.271649 131,277.999056 C131,276.825721 130.997331,275.984655 130.989226,275.196124 C128.258925,273.819556 125.270736,272.864124 121.687438,272.127157 C119.728493,271.724267 118.401316,271.51225 114.53904,270.946132 C104.39481,269.459227 99.5014242,267.900236 95.6865436,263.521457 C94.6847845,269.026543 91.7837659,272.613583 87.0250647,274.147334 C87.0059089,275.21328 87,276.341563 87,277.999056 Z"/></g><g transform="translate(105.000000, 123.000000)" fill="#000000" fill-rule="nonzero"><path d="M85.0596697,251.227366 C87.8775492,252.367856 91.3435773,253 95,253 C98.6564227,253 102.122451,252.367856 104.94033,251.227366 C105.752874,250.898503 106.565238,251.699864 106.247486,252.516816 C104.509658,256.984839 100.047131,260 95,260 C89.9528686,260 85.4903424,256.984839 83.7525138,252.516816 C83.4347617,251.699864 84.2471264,250.898503 85.0596697,251.227366 Z M95,258 C98.3522057,258 101.385295,256.419333 103.2139,253.92201 C100.707707,254.624637 97.9051969,255 95,255 C92.0948031,255 89.2922926,254.624637 86.7860999,253.92201 C88.6147049,256.419333 91.6477943,258 95,258 Z"/><path d="M89.9479171,244.854759 C90.0281313,245.401188 89.6501899,245.909182 89.1037614,245.989396 C88.5573329,246.069611 88.0493386,245.691669 87.9691244,245.145241 C87.7970372,243.972962 86.9466971,243.142857 86,243.142857 C85.0533029,243.142857 84.2029628,243.972962 84.0308756,245.145241 C83.9506614,245.691669 83.4426671,246.069611 82.8962386,245.989396 C82.3498101,245.909182 81.9718687,245.401188 82.0520829,244.854759 C82.3613812,242.747782 84.0054298,241.142857 86,241.142857 C87.9945702,241.142857 89.6386188,242.747782 89.9479171,244.854759 Z"/><path d="M107.947917,244.854759 C108.028131,245.401188 107.65019,245.909182 107.103761,245.989396 C106.557333,246.069611 106.049339,245.691669 105.969124,245.145241 C105.797037,243.972962 104.946697,243.142857 104,243.142857 C103.053303,243.142857 102.202963,243.972962 102.030876,245.145241 C101.950661,245.691669 101.442667,246.069611 100.896239,245.989396 C100.34981,245.909182 99.9718687,245.401188 100.052083,244.854759 C100.361381,242.747782 102.00543,241.142857 104,241.142857 C105.99457,241.142857 107.638619,242.747782 107.947917,244.854759 Z"/></g></g></g><text x="0" y="79" fill="#000000" font-size="5px" font-weight="bold" font-family="'Helvetica Neue', Helvetica, Arial-Unicode, Arial, Sans-serif">Created by Xinh Studio</text><text x="0" y="84" fill="#000000" font-size="5px" font-weight="bold" font-family="'Helvetica Neue', Helvetica, Arial-Unicode, Arial, Sans-serif">from the Noun Project</text></svg>